<svg width="21" height="24" viewBox="0 0 21 24" fill="none" xmlns="http://www.w3.org/2000/svg">
<path d="M0.514286 11.4857C1.2 12.1714 2.22857 12.1714 2.91429 11.4857L8.57143 5.82857V22.2857C8.57143 23.3143 9.25714 24 10.2857 24C11.3143 24 12 23.3143 12 22.2857V5.82857L17.6571 11.4857C18.3429 12.1714 19.3714 12.1714 20.0571 11.4857C20.7429 10.8 20.7429 9.77143 20.0571 9.08571L11.4857 0.514286C11.1429 0.171429 10.8 0 10.2857 0C9.77143 0 9.42857 0.171429 9.08571 0.514286L0.514286 9.08571C-0.171429 9.77143 -0.171429 10.8 0.514286 11.4857Z" fill="#6C933E"/>
</svg>
