<svg width="37" height="37" viewBox="0 0 37 37" fill="none" xmlns="http://www.w3.org/2000/svg">
<rect x="-0.66272" y="-0.052063" width="36.9048" height="36.9" transform="rotate(-0.233575 -0.66272 -0.052063)" fill="#6C933E"/>
<path fill-rule="evenodd" clip-rule="evenodd" d="M11.9765 14.1534L23.7188 14.1055C24.2221 14.1034 24.5562 13.7666 24.5542 13.2634C24.5521 12.7603 24.2153 12.4262 23.712 12.4282L11.9697 12.4761C11.4664 12.4782 11.1323 12.815 11.1343 13.3182C11.1364 13.8213 11.4733 14.1554 11.9765 14.1534ZM23.7325 17.46L11.9902 17.5079C11.4869 17.5099 11.1528 17.8468 11.1549 18.3499C11.1569 18.8531 11.4938 19.1872 11.997 19.1851L23.7394 19.1373C24.2426 19.1352 24.5767 18.7984 24.5747 18.2952C24.5726 17.792 24.2358 17.458 23.7325 17.46ZM12.0107 22.5397L23.753 22.4918C24.2563 22.4897 24.5931 22.8238 24.5952 23.327C24.5972 23.8302 24.2631 24.167 23.7599 24.169L12.0175 24.2169C11.5143 24.219 11.1774 23.8849 11.1754 23.3817C11.1733 22.8785 11.5074 22.5417 12.0107 22.5397Z" fill="white"/>
</svg>
